# xmcd
#
# Track frame offsets: 
#        180
#        13191
#        33201
#        51536
#        67735
#        90235
#        119576
#        155555
#        172109
#        198425
#
# Disc length: 3078 seconds
#
# Revision: 0
# Processed by: cddbd v1.5.2PL0 Copyright (c) Steve Scherf et al.
# Submitted via: ExactAudioCopyFreeDBPlugin 1.0
#
DISCID=820c040a
DTITLE=Daniel Blanc - Guitaroplasmose
DYEAR=1994
DGENRE=Blues
TTITLE0=Mon bébé
TTITLE1=Monnaie, monnaie
TTITLE2=Guitaroplasmose
TTITLE3=You spend my money
TTITLE4=Aurore
TTITLE5=Je suis un noir à peau blanche
TTITLE6=Hell's angel
TTITLE7=Le boogie woogie, c'est toute ma vie
TTITLE8=Ma Mercedes rose
TTITLE9=Racine
EXTD=
EXTT0=
EXTT1=
EXTT2=
EXTT3=
EXTT4=
EXTT5=
EXTT6=
EXTT7=
EXTT8=
EXTT9=
PLAYORDER=
